Coordinates
version=1
nRows=29
nColumns=22
inDegrees=yes

Units are S.I. units (second, meters, Newtons, ...)
If the header above contains a line with 'inDegrees', this indicates whether rotational values are in degrees (yes) or radians (no).

endheader
time	pelvis_tilt	pelvis_list	pelvis_rotation	pelvis_tx	pelvis_ty	pelvis_tz	hip_flexion_r	hip_adduction_r	hip_rotation_r	knee_angle_r	ankle_angle_r	subtalar_angle_r	hip_flexion_l	hip_adduction_l	hip_rotation_l	knee_angle_l	ankle_angle_l	subtalar_angle_l	lumbar_extension	lumbar_bending	lumbar_rotation
      4.27000000	      1.54581457	     -7.17909680	     18.87200139	      1.24671053	      0.95846542	     -0.31829475	     16.06235441	      6.37125631	    -13.22882761	    -22.82147114	      4.94978801	      1.16452043	      8.45239577	    -10.43853468	     13.02717539	    -51.77000731	     10.11837385	      6.33590632	     -0.71379825	      6.02569833	     -8.08535681
      4.28000000	      1.46762113	     -7.16547357	     18.75284680	      1.25184350	      0.95898027	     -0.31755187	     15.67766116	      6.54345818	    -13.13312172	    -22.55687297	      5.16528518	      1.11888088	      9.12592352	    -10.16220593	     12.96378010	    -51.23181311	     10.73204855	      5.97250774	     -0.76781429	      6.05040724	     -7.77839072
      4.29000000	      1.38553658	     -7.12676740	     18.65664213	      1.25679813	      0.95949173	     -0.31691789	     15.27859831	      6.68376733	    -13.00783400	    -22.25822842	      5.35648672	      1.06323708	      9.75645222	     -9.83351834	     12.95875867	    -50.53708478	     11.31223199	      5.60009852	     -0.82854856	      6.05313296	     -7.53934005
      4.30000000	      1.28732270	     -7.10906792	     18.59726923	      1.26160303	      0.95993126	     -0.31635928	     14.91348097	      6.81783588	    -12.95191440	    -21.96276097	      5.54853054	      1.03801347	     10.38977776	     -9.51558223	     13.00580188	    -49.71857660	     11.93190816	      5.52279208	     -0.86010276	      6.07340527	     -7.36849362
      4.31000000	      1.19696429	     -7.09010116	     18.47485726	      1.26633467	      0.96035360	     -0.31575679	     14.55046678	      6.96355331	    -12.83423857	    -21.68088852	      5.74557556	      1.00197722	     10.95791477	     -9.23534475	     12.95007019	    -48.76542557	     12.55077988	      5.46159856	     -0.90520868	      6.09452762	     -7.13166578
      4.32000000	      1.10254271	     -7.07480240	     18.36932788	      1.27091536	      0.96074525	     -0.31521313	     14.19452235	      7.10393632	    -12.71711790	    -21.38598501	      5.92216942	      0.97362343	     11.51069734	     -8.95641840	     12.91768099	    -47.72040811	     13.13107992	      5.45735347	     -0.94545949	      6.11922154	     -6.93459459
      4.33000000	      1.00153102	     -7.06202222	     18.25866546	      1.27537331	      0.96109624	     -0.31470778	     13.85514986	      7.23710828	    -12.59664028	    -21.09637456	      6.08927972	      0.94952331	     12.04846238	     -8.69125314	     12.86219277	    -46.60069846	     13.68631888	      5.47779531	     -0.97715717	      6.14725422	     -6.74780112
      4.34000000	      0.89674598	     -7.04476561	     18.13472506	      1.27971623	      0.96141994	     -0.31423628	     13.52900425	      7.35880902	    -12.46459411	    -20.81646827	      6.24604353	      0.92572849	     12.55912652	     -8.42707812	     12.79085289	    -45.41406175	     14.19913907	      5.50541941	     -1.00786114	      6.17055477	     -6.56522302
      4.35000000	      0.79232763	     -7.01229452	     17.99520930	      1.28395684	      0.96173274	     -0.31381649	     13.20510875	      7.45922945	    -12.31565840	    -20.54392332	      6.39767641	      0.90209442	     13.02776334	     -8.14640674	     12.71795717	    -44.16798843	     14.65939131	      5.53941855	     -1.04365547	      6.18156799	     -6.37958126
      4.36000000	      0.67393184	     -6.97891195	     17.86134936	      1.28807136	      0.96199558	     -0.31347907	     12.91166585	      7.53984737	    -12.17496113	    -20.29152086	      6.54258850	      0.88479291	     13.48009286	     -7.84444230	     12.69180016	    -42.87951314	     15.08589982	      5.56211309	     -1.06270401	      6.19338054	     -6.24307216
      4.37000000	      0.57417287	     -6.88723606	     17.66893504	      1.29216132	      0.96230969	     -0.31315770	     12.57928348	      7.56906215	    -11.99721311	    -20.04338605	      6.71171208	      0.87491750	     13.82443612	     -7.49385224	     12.63289255	    -41.52647349	     15.41533905	      5.63954034	     -1.12111194	      6.14736163	     -6.02553509
      4.38000000	      0.46523656	     -6.79204372	     17.48286717	      1.29615367	      0.96258623	     -0.31292249	     12.26907656	      7.57810864	    -11.82443191	    -19.81381716	      6.87408545	      0.87712022	     14.13182952	     -7.11325162	     12.66062871	    -40.13835053	     15.68990927	      5.75427201	     -1.16492575	      6.09912245	     -5.85557317
      4.39000000	      0.35072977	     -6.68078276	     17.27950630	      1.30007412	      0.96284396	     -0.31273583	     11.97019935	      7.56134805	    -11.64104345	    -19.60012355	      7.03638156	      0.88459828	     14.38329278	     -6.70514777	     12.74400320	    -38.71628422	     15.88097625	      5.92755237	     -1.20305729	      6.03345164	     -5.68671410
      4.40000000	      0.23638329	     -6.56589471	     17.06021665	      1.30393344	      0.96307860	     -0.31257001	     11.68077603	      7.53665406	    -11.44441094	    -19.40065277	      7.19346301	      0.89202204	     14.57782928	     -6.29417983	     12.88126890	    -37.27006658	     15.99040966	      6.17079982	     -1.23685724	      5.96162780	     -5.51983376
      4.41000000	      0.13628794	     -6.46859603	     16.82997315	      1.30775459	      0.96329133	     -0.31238775	     11.38094538	      7.53692999	    -11.22386563	    -19.19300131	      7.33752928	      0.90070836	     14.71534407	     -5.92567609	     13.04595814	    -35.81718505	     16.06322545	      6.54165449	     -1.27229856	      5.90623000	     -5.36714326
      4.42000000	     -0.00099786	     -6.37050288	     16.58795184	      1.31147897	      0.96342877	     -0.31219076	     11.14467278	      7.51823312	    -11.01243730	    -19.01944433	      7.46331721	      0.87540564	     14.85296412	     -5.56646631	     13.22353207	    -34.37505111	     16.02211490	      6.82113142	     -1.26327090	      5.83071849	     -5.21818060
      4.43000000	     -0.11752065	     -6.30271351	     16.33381977	      1.31517512	      0.96354498	     -0.31195202	     10.89026064	      7.54296803	    -10.77525025	    -18.82759789	      7.57362657	      0.84349246	     14.94887997	     -5.28988566	     13.35247305	    -32.96733015	     15.97087492	      7.12998443	     -1.25672195	      5.78716388	     -5.07788841
      4.44000000	     -0.22458944	     -6.26820853	     16.07179809	      1.31882207	      0.96362015	     -0.31164757	     10.63998879	      7.60869884	    -10.52575663	    -18.63168165	      7.67037622	      0.80718169	     15.03124322	     -5.09943182	     13.40696214	    -31.62202705	     15.90767388	      7.40996457	     -1.24241099	      5.77055794	     -4.95133601
      4.45000000	     -0.31843124	     -6.26689815	     15.80168169	      1.32243093	      0.96365928	     -0.31129410	     10.39092033	      7.71406182	    -10.26499152	    -18.43710406	      7.76051229	      0.76893436	     15.10101942	     -4.99606155	     13.36115532	    -30.35901209	     15.83903233	      7.61993759	     -1.22260239	      5.78478472	     -4.83871173
      4.46000000	     -0.39967908	     -6.28967903	     15.52033556	      1.32601970	      0.96366893	     -0.31087769	     10.14031016	      7.85015976	     -9.99833520	    -18.24454957	      7.84668312	      0.73142810	     15.15918541	     -4.96947475	     13.19396449	    -29.19521275	     15.74921386	      7.72702920	     -1.19895187	      5.81519907	     -4.73269231
      4.47000000	     -0.47969651	     -6.33058212	     15.23131761	      1.32958814	      0.96364503	     -0.31043289	      9.89735716	      8.00722475	     -9.70176209	    -18.05472155	      7.91711340	      0.69999652	     15.21699035	     -4.99883411	     12.91723608	    -28.14381153	     15.61432649	      7.73360287	     -1.15832347	      5.85824710	     -4.66474052
      4.48000000	     -0.52571532	     -6.37332907	     14.91158272	      1.33319541	      0.96363555	     -0.30995969	      9.62375288	      8.17467620	     -9.39990128	    -17.87784298	      8.00842194	      0.66301509	     15.21480643	     -5.07600753	     12.52603870	    -27.19365618	     15.43688459	      7.63992903	     -1.13826345	      5.90499120	     -4.55587582
      4.49000000	     -0.56416068	     -6.41700305	     14.58253214	      1.33682029	      0.96361159	     -0.30948665	      9.34650673	      8.34220323	     -9.08779148	    -17.71165988	      8.09913245	      0.62863287	     15.18262750	     -5.17324899	     12.09103284	    -26.35076883	     15.17713453	      7.46666646	     -1.10733876	      5.94731722	     -4.47204183
      4.50000000	     -0.54456032	     -6.43848640	     14.25088577	      1.34050213	      0.96364682	     -0.30904426	      9.00517443	      8.49474786	     -8.79687872	    -17.56056236	      8.23506855	      0.58205015	     15.03419775	     -5.26907834	     11.67162586	    -25.57984828	     14.81165531	      7.04999703	     -1.12430379	      5.97176605	     -4.39805588
      4.51000000	     -0.57950847	     -6.47153911	     13.88321348	      1.34414994	      0.96359175	     -0.30858430	      8.73853231	      8.64285402	     -8.46033006	    -17.43688160	      8.35042112	      0.55991920	     14.92750304	     -5.36733736	     11.25781898	    -24.93252977	     14.36042782	      6.75732071	     -1.06346587	      5.99036272	     -4.32532578
      4.52000000	     -0.60566956	     -6.48857466	     13.51040372	      1.34781094	      0.96354827	     -0.30816362	      8.45961983	      8.77017817	     -8.11818482	    -17.32292267	      8.46754667	      0.54541667	     14.75987248	     -5.44361811	     10.92895162	    -24.35522352	     13.81358525	      6.41338311	     -0.99591192	      5.98853948	     -4.28214069
      4.53000000	     -0.62884436	     -6.49231374	     13.14538427	      1.35145448	      0.96350916	     -0.30781207	      8.17829650	      8.87485965	     -7.77708309	    -17.21873033	      8.57041350	      0.54479104	     14.54211952	     -5.48826776	     10.72937691	    -23.84535113	     13.21135715	      5.97170761	     -0.91557972	      5.97191396	     -4.29881434
      4.54000000	     -0.68589712	     -6.49268561	     12.74249338	      1.35505817	      0.96342228	     -0.30746459	      7.95527204	      8.96171840	     -7.41431199	    -17.16085578	      8.69634500	      0.54158254	     14.31112739	     -5.51711160	     10.61061595	    -23.39632062	     12.66573600	      5.70971140	     -0.78793171	      5.94294024	     -4.27446203
      4.55000000	     -0.73129808	     -6.48293669	     12.35469727	      1.35863244	      0.96335695	     -0.30719785	      7.71592189	      9.03143402	     -7.06155152	    -17.09991456	      8.81330916	      0.55274791	     14.02271439	     -5.51903894	     10.62426727	    -22.99447324	     12.23085568	      5.42447080	     -0.66122992	      5.90762941	     -4.30444849
